<svg xmlns="http://www.w3.org/2000/svg" width="16" height="16" fill="none" viewBox="0 0 16 16"><g stroke="#2B7FFF" stroke-linecap="round" stroke-linejoin="round" stroke-width="1.5" clip-path="url(#a)"><path d="m7.193 6.914 6.501 2.23c.197.068.201.346.006.418l-2.914 1.097a.22.22 0 0 0-.13.13L9.56 13.702a.222.222 0 0 1-.418-.006L6.911 7.195a.223.223 0 0 1 .283-.282zM10.691 10.693l3.744 3.744M6.887 1.555v1.777M10.66 3.117 9.402 4.375M3.117 10.66l1.258-1.258M1.555 6.889h1.777M3.117 3.117l1.258 1.258"/></g><defs><clipPath id="a"><path fill="#fff" d="M0 0h16v16H0z"/></clipPath></defs></svg>