<svg width="16" height="16" viewBox="0 0 16 16" fill="none" xmlns="http://www.w3.org/2000/svg">
<g clip-path="url(#clip0_46694_77351)">
<path d="M7.19278 6.91357L13.6941 9.14468C13.8914 9.21223 13.895 9.48957 13.7003 9.56245L10.7857 10.6585C10.7261 10.6807 10.6781 10.7287 10.6559 10.7882L9.55989 13.7029C9.48611 13.8976 9.20967 13.894 9.14211 13.6967L6.911 7.19534C6.85056 7.02023 7.01856 6.85312 7.19367 6.91268L7.19278 6.91357Z" stroke="#2B7FFF" stroke-width="1.5" stroke-linecap="round" stroke-linejoin="round"/>
<path d="M10.6914 10.6934L14.4354 14.4374" stroke="#2B7FFF" stroke-width="1.5" stroke-linecap="round" stroke-linejoin="round"/>
<path d="M6.88672 1.55469V3.33247" stroke="#2B7FFF" stroke-width="1.5" stroke-linecap="round" stroke-linejoin="round"/>
<path d="M10.6601 3.11719L9.40234 4.37497" stroke="#2B7FFF" stroke-width="1.5" stroke-linecap="round" stroke-linejoin="round"/>
<path d="M3.11719 10.6601L4.37497 9.40234" stroke="#2B7FFF" stroke-width="1.5" stroke-linecap="round" stroke-linejoin="round"/>
<path d="M1.55469 6.88867H3.33247" stroke="#2B7FFF" stroke-width="1.5" stroke-linecap="round" stroke-linejoin="round"/>
<path d="M3.11719 3.11719L4.37497 4.37497" stroke="#2B7FFF" stroke-width="1.5" stroke-linecap="round" stroke-linejoin="round"/>
</g>
<defs>
<clipPath id="clip0_46694_77351">
<rect width="16" height="16" fill="white"/>
</clipPath>
</defs>
</svg>
