<svg width="16" height="16" viewBox="0 0 16 16" fill="none" xmlns="http://www.w3.org/2000/svg">
<path d="M7.99913 6.44358C9.34916 6.44358 10.4436 5.34916 10.4436 3.99913C10.4436 2.6491 9.34916 1.55469 7.99913 1.55469C6.6491 1.55469 5.55469 2.6491 5.55469 3.99913C5.55469 5.34916 6.6491 6.44358 7.99913 6.44358Z" stroke="#AD46FF" stroke-width="1.5" stroke-linecap="round" stroke-linejoin="round"/>
<path d="M11.8341 10.2216C10.8376 9.26335 9.49187 8.66602 8.00031 8.66602C5.73276 8.66602 3.78787 10.026 2.92565 11.9727C2.6012 12.706 3.00298 13.5496 3.76742 13.7905C4.85631 14.1336 6.2972 14.4429 8.00031 14.4429" stroke="#AD46FF" stroke-width="1.5" stroke-linecap="round" stroke-linejoin="round"/>
<path d="M10 13.11L11.4302 14.4434L14.4498 10.4434" stroke="#AD46FF" stroke-width="1.5" stroke-linecap="round" stroke-linejoin="round"/>
</svg>
