<svg xmlns="http://www.w3.org/2000/svg" width="16" height="16" fill="none" viewBox="0 0 16 16"><path stroke="#00BBA7" stroke-linecap="round" stroke-linejoin="round" stroke-width="1.5" d="M13.113 3.332v11.112l-2.445-1.334-2.666 1.334-2.667-1.334-2.444 1.334V3.332c0-.982.795-1.777 1.777-1.777h6.667c.982 0 1.778.795 1.778 1.777"/><path stroke="#00BBA7" stroke-linecap="round" stroke-linejoin="round" stroke-width="1.5" d="M9.535 5.827c-.332-.787-.997-.966-1.5-.966-.468 0-1.695.25-1.582 1.428.08.827.86 1.135 1.542 1.257.681.122 1.67.381 1.695 1.378.02.844-.738 1.42-1.654 1.42-.876 0-1.485-.34-1.72-1.111M8 4.22v.64M8 10.344v.544"/></svg>