<svg width="16" height="16" viewBox="0 0 16 16" fill="none" xmlns="http://www.w3.org/2000/svg">
<path d="M13.1128 3.33247V14.4436L10.6684 13.1102L8.00174 14.4436L5.33507 13.1102L2.89062 14.4436V3.33247C2.89062 2.35024 3.68618 1.55469 4.6684 1.55469H11.3351C12.3173 1.55469 13.1128 2.35024 13.1128 3.33247Z" stroke="#404040" stroke-width="1.5" stroke-linecap="round" stroke-linejoin="round"/>
<path d="M9.53507 5.82666C9.20263 5.04 8.53774 4.86133 8.03463 4.86133C7.56707 4.86133 6.33952 5.11022 6.45329 6.28888C6.53329 7.11644 7.31285 7.42399 7.99463 7.54577C8.67641 7.66755 9.66574 7.92711 9.68974 8.92444C9.71018 9.768 8.95196 10.344 8.03552 10.344C7.15996 10.344 6.55107 10.0036 6.31641 9.23288" stroke="#404040" stroke-width="1.5" stroke-linecap="round" stroke-linejoin="round"/>
<path d="M8 4.2207V4.8607" stroke="#404040" stroke-width="1.5" stroke-linecap="round" stroke-linejoin="round"/>
<path d="M8 10.3438V10.8878" stroke="#404040" stroke-width="1.5" stroke-linecap="round" stroke-linejoin="round"/>
</svg>
